<?xml version="1.0" encoding="UTF-8"?>
<svg id="Layer_2" data-name="Layer 2" xmlns="http://www.w3.org/2000/svg" viewBox="0 0 381.96 56.97">
  <defs>
    <style>
      .cls-1 {
        fill: #000;
        stroke-width: 0px;
      }
    </style>
  </defs>
  <g id="Layer_1-2" data-name="Layer 1">
    <g>
      <path class="cls-1" d="M7.08,1.23c-1.46,0-3.31-.15-6-.38l-1.08-.08.08,1.77c.31,0,.46,0,.85.08,3.77.39,5,1.46,5,4.54v35.87c0,3.08-1.23,4.16-5,4.54-.38.08-.54.08-.85.08l-.08,1.77,1.08-.08c2.69-.23,4.54-.39,6-.39h6.77c1.46,0,3.31.15,6,.39l1.08.08-.08-1.77c-.31,0-.46,0-.85-.08-3.77-.39-5-1.46-5-4.54v-17.78h17.32v-5.23H15.01V6.85l10.78.15c6.47.08,7.31-.39,8.7,5.62h1.62l-1.46-11.47-27.56.08Z"/>
      <path class="cls-1" d="M61.89,16.47c.38-.08.54-.08.85-.08l.08-1.77-1.08.08c-2.69.23-3.77.39-5.23.39h-6c-1.46,0-2.54-.15-5.23-.39l-1.08-.08.08,1.77c.31,0,.46,0,.85.08,3.77.39,4.23,1.46,4.23,4.54v22.02c0,3.08-.46,4.16-4.23,4.54-.38.08-.54.08-.85.08l-.08,1.77,1.08-.08c2.69-.23,3.77-.39,5.23-.39h6c1.46,0,2.54.15,5.23.39l1.08.08-.08-1.77c-.31,0-.46,0-.85-.08-3.77-.39-4.23-1.46-4.23-4.54v-22.02c0-3.08.46-4.16,4.23-4.54Z"/>
      <path class="cls-1" d="M53.27,11.08h.77c1.08-2.46,2.69-4.08,5.16-5.16v-.77c-2.46-1.08-4.08-2.69-5.16-5.16h-.77c-1.08,2.46-2.69,4.08-5.16,5.16v.77c2.46,1.08,4.08,2.69,5.16,5.16Z"/>
      <path class="cls-1" d="M102.07,40.88c-2.69,3.39-3.31,3.62-7.31,3.62h-5.16c-2.46,0-2.62-.15-2.62-2.92v-20.55c0-3.08.46-4.16,4.23-4.54.38-.08.54-.08.85-.08l.08-1.77-1.08.08c-2.69.23-3.77.39-5.23.39h-6c-1.46,0-2.54-.15-5.23-.39l-1.08-.08.08,1.77c.31,0,.46,0,.85.08,3.77.39,4.23,1.46,4.23,4.54v22.02c0,3.08-.46,4.16-4.23,4.54-.39.08-.54.08-.85.08l-.08,1.77,1.08-.08c2.69-.23,3.77-.39,5.23-.39h6.08c4.46,0,15.55.31,15.55.31.54-2,1.62-6.77,4.62-10.7h-2.16l-1.85,2.31Z"/>
      <path class="cls-1" d="M165.81,16.47c.38-.08.54-.08.85-.08l.08-1.77-1.08.08c-2.69.23-10.01.62-11.24,1l-15.32,4.77-15.32-4.77c-1.31-.38-8.54-.77-11.24-1l-1.08-.08.08,1.77c.31,0,.46,0,.85.08,3.77.39,4.23,1.46,4.23,4.54v22.02c0,3.08-.46,4.16-4.23,4.54-.39.08-.54.08-.85.08l-.08,1.77,1.08-.08c2.69-.23,3.77-.39,5.23-.39h7.16v-27.71l10.01,3.08v18.71c0,3.08-.46,4.16-4.23,4.54-.38.08-.54.08-.85.08l-.08,1.77,1.08-.08c2.69-.23,3.77-.39,5.23-.39h6c1.46,0,2.54.15,5.23.39l1.08.08-.08-1.77c-.31,0-.46,0-.85-.08-3.77-.39-4.23-1.46-4.23-4.54v-18.63l10.01-3.16v27.71h7.16c1.46,0,2.54.15,5.23.39l1.08.08-.08-1.77c-.31,0-.46,0-.85-.08-3.77-.39-4.23-1.46-4.23-4.54v-22.02c0-3.08.46-4.16,4.23-4.54Z"/>
      <path class="cls-1" d="M184.97,1.23c-1.46,0-3.31-.15-6-.38l-1.08-.08.08,1.77c.31,0,.46,0,.85.08,3.77.39,5,1.46,5,4.54v35.87c0,3.08-1.23,4.16-5,4.54-.38.08-.54.08-.85.08l-.08,1.77,1.08-.08c2.69-.23,4.54-.39,6-.39h6.77c1.46,0,3.31.15,6,.39l1.08.08-.08-1.77c-.31,0-.46,0-.85-.08-3.77-.39-5-1.46-5-4.54v-17.78h17.32v-5.23h-17.32V6.85l10.78.15c6.47.08,7.31-.39,8.7,5.62h1.62l-1.46-11.47-27.56.08Z"/>
      <path class="cls-1" d="M249.94,40.88c-2.69,3.39-3.31,3.62-7.31,3.62h-5.16c-2.46,0-2.62-.15-2.62-2.92v-20.55c0-3.08.46-4.16,4.23-4.54.38-.08.54-.08.85-.08l.08-1.77-1.08.08c-2.69.23-3.77.39-5.24.39h-6c-1.46,0-2.54-.15-5.24-.39l-1.08-.08.08,1.77c.31,0,.46,0,.85.08,3.77.39,4.23,1.46,4.23,4.54v22.02c0,3.08-.46,4.16-4.23,4.54-.38.08-.54.08-.85.08l-.08,1.77,1.08-.08c2.69-.23,3.77-.39,5.24-.39h6.08c4.46,0,15.55.31,15.55.31.54-2,1.62-6.77,4.62-10.7h-2.16l-1.85,2.31Z"/>
      <path class="cls-1" d="M298.05,47.57c-3.77-.39-4.23-1.46-4.23-4.54v-.85c0-12.78-6.31-23.09-15.86-28.64-9.39,5.54-15.63,15.94-15.63,28.64v.85c0,3.08-.46,4.16-4.23,4.54-.39.08-.54.08-.85.08l-.08,1.77,1.08-.08c2.69-.23,3.77-.39,5.24-.39h6c1.46,0,2.54.15,5.23.39l1.08.08-.08-1.77c-.31,0-.46,0-.85-.08-3.62-.39-4.16-1.39-4.23-4.16,0-1.46,0-2.85.08-4.16h14.7c.08,1.31.08,2.69.08,4.16-.08,2.77-.62,3.77-4.23,4.16-.38.08-.54.08-.85.08l-.08,1.77,1.08-.08c2.69-.23,3.77-.39,5.23-.39h6c1.46,0,2.54.15,5.24.39l1.08.08-.08-1.77c-.31,0-.46,0-.85-.08ZM270.88,35.95c.85-10.55,3.31-14.63,7.16-17.47,3.85,2.85,6.39,6.93,7.16,17.47h-14.32Z"/>
      <path class="cls-1" d="M356.4,54.35c-9.93-3.46-19.4-16.86-24.56-21.48,3.7-1.92,6.31-5.23,6.31-9.39,0-4.7-4.62-8.62-12.39-8.62-2.77,0-12.62.23-12.62.23-1.46,0-2.54-.15-5.24-.39l-1.08-.08.08,1.77c.31,0,.46,0,.85.08,3.77.39,4.23,1.46,4.23,4.54v22.02c0,3.08-.46,4.16-4.23,4.54-.38.08-.54.08-.85.08l-.08,1.77,1.08-.08c2.69-.23,3.77-.39,5.24-.39h6c1.46,0,2.54.15,5.24.39l1.08.08-.08-1.77c-.31,0-.46,0-.85-.08-3.77-.39-4.23-1.46-4.23-4.54v-8.62c.77.08,1.62.15,2.54.15.85.38,1.62.62,1.85.85,3.39,2.69,17.32,21.55,34.1,21.55,4.46,0,7.85-1.31,8.47-2.77-3.16,1.31-7.54,1.31-10.85.15ZM323.07,31.95c-1,0-2.77-.15-2.77-.15v-11.55c0-1.77,1.31-1.85,3.31-1.85,4.23,0,6.24,3.08,6.24,6.47,0,4.39-3.16,7.08-6.77,7.08Z"/>
      <path class="cls-1" d="M379.95,40.11c-2.23,3.23-3,4.39-7.08,4.39h-5.31c-2.46,0-2.62-.15-2.62-2.92v-9.16h12.47v-4.16h-12.47v-8.78l9.08.15c3.23.08,3.7.31,4.62,3.85l1.62.08-1.16-8.47h-21.32c-1.46,0-2.54-.15-5.24-.39l-1.08-.08.08,1.77c.31,0,.46,0,.85.08,3.77.39,4.23,1.46,4.23,4.54v22.02c0,3.08-.46,4.16-4.23,4.54-.38.08-.54.08-.85.08l-.08,1.77,1.08-.08c2.69-.23,3.77-.39,5.24-.39h12.62c3.39.08,8.7.23,8.7.23.54-2.08.54-5.39,2.85-9.24l-2,.15Z"/>
    </g>
  </g>
</svg>